# xmcd
#
# Track frame offsets: 
#        150
#        14074
#        27623
#        40572
#        54796
#        68645
#        82644
#        94843
#        106292
#        119991
#        131440
#        144689
#        158913
#        172312
#        187061
#        201660
#
# Disc length: 2833 seconds
#
# Revision: 0
# Processed by: cddbd v1.5.2PL0 Copyright (c) Steve Scherf et al.
# Submitted via: ExactAudioCopy v1.0b4
#
DISCID=e90b0f10
DTITLE=Muddy Waters - Original Hits and Rarities 1941-1961 I'm Ready
DYEAR=1900
DGENRE=Blues
TTITLE0=I'm Ready
TTITLE1=I Don't Know Why
TTITLE2=I'm A Natural Born Lover
TTITLE3=Smokestack Lightning
TTITLE4=Clouds In My Heart
TTITLE5=This Pain
TTITLE6=Trouble No More
TTITLE7=Sugar Sweet
TTITLE8=Young Fashioned Ways
TTITLE9=I Want To Be Loved
TTITLE10=I Got To Find My Baby
TTITLE11=My Eyes (Keep Me In Trouble)
TTITLE12=Mannish Boy
TTITLE13=Just To Be with You
TTITLE14=Rock Me
TTITLE15=Look What You' ve Done
EXTD=
EXTT0=
EXTT1=
EXTT2=
EXTT3=
EXTT4=
EXTT5=
EXTT6=
EXTT7=
EXTT8=
EXTT9=
EXTT10=
EXTT11=
EXTT12=
EXTT13=
EXTT14=
EXTT15=
PLAYORDER=
